<svg width="1775" height="122" viewBox="0 0 1775 122" fill="none" xmlns="http://www.w3.org/2000/svg">
<path d="M139.229 97.5397L17.2227 73.2492L104.785 1.70557L139.229 97.5397Z" fill="white"/>
<path d="M212.136 0L207.767 21.8946H229.216C232.481 21.8946 235.35 22.5501 237.821 23.8612C240.381 25.0848 242.455 26.7455 244.044 28.8432C245.633 30.8534 246.692 33.2134 247.221 35.9229C247.839 38.545 247.883 41.2982 247.354 44.1825L240.866 76.1722C240.249 78.9691 239.145 81.7223 237.557 84.4318C236.056 87.0539 234.114 89.4138 231.731 91.5115C229.436 93.5218 226.744 95.1824 223.655 96.4935C220.566 97.7171 217.256 98.329 213.725 98.329H170.299L190.158 0H212.136ZM194.527 87.3161H216.638L227.627 32.7763H205.516L194.527 87.3161Z" fill="white"/>
<path d="M287.205 65.5526L282.836 87.3161H303.358C304.946 87.3161 306.535 87.0539 308.124 86.5294C309.713 85.9176 311.169 85.131 312.493 84.1695C313.905 83.2081 315.097 82.0719 316.068 80.7608C317.039 79.4498 317.656 78.0076 317.921 76.4343H328.778C328.248 79.3186 327.057 82.0719 325.203 84.694C323.349 87.3161 321.099 89.676 318.451 91.7736C315.891 93.7839 313.111 95.4009 310.11 96.6245C307.197 97.7608 304.328 98.3289 301.504 98.3289H280.982C277.893 98.3289 275.113 97.6734 272.641 96.3623C270.258 95.0513 268.272 93.3469 266.684 91.2492C265.095 89.0641 263.947 86.6168 263.241 83.9073C262.623 81.1978 262.579 78.4883 263.109 75.7788L269.464 44.3135C270.082 41.5166 271.229 38.7634 272.906 36.0539C274.671 33.3444 276.79 30.9408 279.261 28.8431C281.821 26.7454 284.557 25.0848 287.47 23.8611C290.471 22.5501 293.472 21.8945 296.473 21.8945H316.994C320.172 21.8945 323.041 22.5501 325.6 23.8611C328.16 25.0848 330.234 26.7454 331.823 28.8431C333.412 30.9408 334.515 33.3444 335.133 36.0539C335.839 38.7634 335.883 41.5166 335.265 44.3135L331.029 65.5526H287.205ZM311.169 54.6708L315.538 32.6452H293.825L289.456 54.6708H311.169Z" fill="white"/>
<path d="M346.652 98.3289L362.143 21.8945H384.121L381.87 32.6452L384.385 30.9408C385.886 29.8046 388.137 28.5809 391.138 27.2698C394.227 25.9588 397.934 24.7351 402.259 23.5989C406.672 22.4627 411.659 21.8945 417.22 21.8945C417.22 21.8945 416.47 25.4781 414.969 32.6452C410.026 32.6452 405.392 33.3007 401.067 34.6118C396.743 35.8354 392.991 37.1901 389.814 38.676C386.636 40.1619 384.121 41.5603 382.267 42.8714C380.414 44.095 379.487 44.7069 379.487 44.7069L368.63 98.3289H346.652Z" fill="white"/>
<path d="M470.178 32.7763H448.067L434.828 98.3289H412.85L428.34 21.8945H516.119C519.12 21.8945 521.857 22.5501 524.328 23.8611C526.799 25.0848 528.829 26.7454 530.418 28.8431C532.007 30.8534 533.11 33.2133 533.728 35.9228C534.434 38.5449 534.523 41.2981 533.993 44.1824L523.004 98.3289H501.026L514.266 32.7763H492.155L478.916 98.3289H456.938L470.178 32.7763Z" fill="white"/>
<path d="M568.02 98.3289C564.842 98.3289 561.974 97.7608 559.414 96.6245C556.854 95.4883 554.736 93.915 553.059 91.9047C551.382 89.8945 550.234 87.5346 549.617 84.8251C549.087 82.1156 549.131 79.2312 549.749 76.1721L560.738 21.8945H582.716L569.476 87.4472H591.586L604.826 21.8945H626.804L611.314 98.3289H568.02Z" fill="white"/>
<path d="M719.48 0L699.621 98.329H656.327C653.502 98.329 650.854 97.7171 648.383 96.4935C645.911 95.1824 643.793 93.5218 642.028 91.5115C640.351 89.4138 639.115 87.0539 638.321 84.4318C637.526 81.7223 637.438 78.9691 638.056 76.1722L644.543 44.1825C645.073 41.2982 646.265 38.545 648.118 35.9229C649.972 33.2134 652.178 30.8534 654.738 28.8432C657.297 26.7455 660.078 25.0848 663.079 23.8612C666.08 22.5501 668.993 21.8946 671.817 21.8946H693.133L697.502 0H719.48ZM690.882 32.7763H668.772L657.783 87.3161H679.893L690.882 32.7763Z" fill="white"/>
<path d="M758.141 32.7763C753.551 32.7763 750.197 33.4755 748.079 34.874C746.049 36.2724 744.725 38.3701 744.107 41.167H733.383C734.53 35.5732 737.311 30.9845 741.724 27.401C746.225 23.73 752.36 21.8945 760.127 21.8945H780.516C784.047 21.8945 787.092 22.5501 789.651 23.8611C792.211 25.0848 794.241 26.7454 795.742 28.8431C797.331 30.9408 798.39 33.3444 798.919 36.0539C799.449 38.7634 799.405 41.5166 798.787 44.3135L787.93 98.3289H744.107C741.106 98.3289 738.37 97.8045 735.898 96.7557C733.427 95.7068 731.353 94.2209 729.676 92.2981C728.087 90.2878 726.984 87.8842 726.366 85.0873C725.748 82.2904 725.748 79.1875 726.366 75.7788L728.749 64.1104C729.367 61.2261 730.558 58.5603 732.324 56.113C734.089 53.6657 736.163 51.5243 738.546 49.6888C741.018 47.8534 743.666 46.4112 746.49 45.3624C749.403 44.3135 752.271 43.7891 755.096 43.7891H776.941L779.192 32.7763H758.141ZM774.823 54.6708H752.713L746.093 87.3161H768.203L774.823 54.6708Z" fill="white"/>
</svg>
