<svg xmlns="http://www.w3.org/2000/svg" viewBox="845 45 935 56" fill="none">
<path d="M874.946 60.8059C874.712 58.1243 873.892 56.1915 872.486 55.0074C871.109 53.7885 869.337 53.1791 867.17 53.1791C866.292 53.1791 865.428 53.2836 864.578 53.4925C863.729 53.7014 862.967 54.0497 862.293 54.5372C861.649 55.0249 861.121 55.6866 860.712 56.5224C860.331 57.3233 860.141 58.3333 860.141 59.5522C860.141 60.7014 860.419 61.6417 860.976 62.373C861.561 63.0696 862.322 63.6443 863.26 64.0969C864.226 64.5497 865.31 64.9328 866.51 65.2462C867.712 65.5248 868.928 65.8382 870.157 66.1865C871.417 66.5348 872.647 66.9527 873.848 67.4402C875.049 67.893 876.118 68.5198 877.055 69.3209C878.022 70.1218 878.783 71.1318 879.339 72.3507C879.926 73.5695 880.218 75.1019 880.218 76.9477C880.218 78.9328 879.838 80.6393 879.077 82.0672C878.343 83.4602 877.392 84.6094 876.221 85.5149C875.049 86.3855 873.731 87.0124 872.266 87.3955C870.832 87.8133 869.396 88.0223 867.961 88.0223C866.204 88.0223 864.534 87.7612 862.952 87.2388C861.4 86.7163 860.024 85.9328 858.823 84.888C857.651 83.8084 856.713 82.4502 856.011 80.8134C855.337 79.1418 855 77.1741 855 74.9104H858.955C858.955 76.4775 859.204 77.8358 859.701 78.985C860.228 80.0995 860.902 81.0223 861.722 81.7536C862.572 82.4851 863.553 83.0249 864.666 83.373C865.778 83.7213 866.921 83.8955 868.093 83.8955C869.03 83.8955 869.968 83.7911 870.905 83.582C871.871 83.373 872.736 83.0249 873.497 82.5372C874.258 82.0149 874.873 81.3183 875.342 80.4478C875.81 79.5771 876.045 78.4626 876.045 77.1045C876.045 75.8159 875.752 74.7711 875.166 73.9701C874.61 73.1691 873.848 72.5248 872.881 72.0373C871.944 71.5149 870.876 71.0969 869.674 70.7835C868.473 70.4701 867.244 70.1566 865.984 69.8432C864.753 69.4949 863.538 69.1119 862.337 68.694C861.136 68.2412 860.053 67.6666 859.087 66.9701C858.149 66.2388 857.388 65.3159 856.801 64.2014C856.245 63.0522 855.967 61.6243 855.967 59.9178C855.967 58.0373 856.289 56.4179 856.933 55.0596C857.577 53.6666 858.427 52.5348 859.481 51.6641C860.565 50.7586 861.781 50.0969 863.128 49.679C864.505 49.2264 865.91 49 867.346 49C868.957 49 870.45 49.2264 871.827 49.679C873.204 50.1318 874.405 50.8457 875.43 51.8208C876.484 52.7959 877.305 54.0323 877.89 55.5298C878.505 56.9924 878.842 58.7512 878.901 60.8059H874.946ZM900.447 71.0969C900.389 70.0522 900.183 69.0596 899.833 68.1193C899.51 67.1791 899.057 66.378 898.47 65.7163C897.914 65.0199 897.241 64.4801 896.45 64.0969C895.688 63.679 894.838 63.4701 893.901 63.4701C892.934 63.4701 892.056 63.679 891.265 64.0969C890.504 64.4801 889.845 65.0199 889.288 65.7163C888.732 66.4129 888.293 67.2312 887.97 68.1716C887.648 69.077 887.457 70.0522 887.398 71.0969H900.447ZM904.05 78.6194C903.553 81.6491 902.454 83.9303 900.755 85.4626C899.057 86.995 896.918 87.7612 894.341 87.7612C892.525 87.7612 890.943 87.4129 889.596 86.7163C888.278 86.0199 887.165 85.0447 886.257 83.7911C885.349 82.5372 884.661 81.0397 884.192 79.2984C883.753 77.5571 883.504 75.6591 883.445 73.6044C883.445 71.5497 883.709 69.6691 884.236 67.9627C884.763 66.2561 885.496 64.776 886.433 63.5224C887.398 62.2685 888.526 61.2934 889.816 60.597C891.133 59.9004 892.569 59.5522 894.121 59.5522C896.142 59.5522 897.811 60.0572 899.13 61.0672C900.477 62.0422 901.546 63.296 902.337 64.8284C903.157 66.3606 903.713 68.0323 904.006 69.8432C904.329 71.6541 904.461 73.378 904.402 75.0149H887.398C887.37 76.1989 887.486 77.3309 887.75 78.4103C888.014 79.4552 888.438 80.3955 889.025 81.2312C889.61 82.0323 890.357 82.6766 891.265 83.1641C892.173 83.6517 893.242 83.8955 894.473 83.8955C896.054 83.8955 897.343 83.4602 898.338 82.5895C899.363 81.7189 900.038 80.3955 900.359 78.6194H904.05ZM928.394 87.082C927.75 87.5348 926.857 87.7612 925.714 87.7612C924.748 87.7612 923.971 87.4478 923.386 86.8208C922.83 86.1592 922.551 85.0969 922.551 83.6343C921.526 85.0969 920.325 86.1592 918.949 86.8208C917.601 87.4478 916.137 87.7612 914.555 87.7612C913.53 87.7612 912.549 87.6218 911.612 87.3433C910.704 87.0646 909.913 86.6293 909.24 86.0373C908.565 85.4452 908.024 84.679 907.613 83.7387C907.233 82.7636 907.042 81.597 907.042 80.2388C907.042 78.7064 907.262 77.4526 907.701 76.4775C908.141 75.5024 908.712 74.7189 909.414 74.1268C910.148 73.4999 910.968 73.0297 911.876 72.7163C912.813 72.4029 913.765 72.1418 914.731 71.9328C915.756 71.689 916.722 71.5149 917.63 71.4103C918.567 71.2711 919.387 71.0969 920.091 70.888C920.794 70.6443 921.35 70.3134 921.761 69.8955C922.17 69.4428 922.375 68.7985 922.375 67.9627C922.375 66.9876 922.214 66.2039 921.893 65.6118C921.599 65.0199 921.203 64.5671 920.706 64.2537C920.238 63.9403 919.695 63.7313 919.081 63.6268C918.494 63.5224 917.909 63.4701 917.323 63.4701C915.741 63.4701 914.423 63.8358 913.369 64.5671C912.314 65.2637 911.744 66.6044 911.656 68.5895H907.921C907.98 66.9178 908.273 65.5074 908.8 64.3582C909.328 63.2089 910.03 62.286 910.909 61.5895C911.787 60.8581 912.784 60.3357 913.897 60.0223C915.038 59.7089 916.254 59.5522 917.542 59.5522C918.567 59.5522 919.578 59.6393 920.574 59.8134C921.599 59.9876 922.522 60.3532 923.342 60.9104C924.162 61.4328 924.821 62.1815 925.319 63.1566C925.817 64.1318 926.066 65.4029 926.066 66.9701V80.8657C926.066 81.9104 926.11 82.6766 926.198 83.1641C926.315 83.6517 926.666 83.8955 927.252 83.8955C927.574 83.8955 927.955 83.8084 928.394 83.6343V87.082ZM922.331 73.2388C921.863 73.6567 921.247 73.9701 920.486 74.1791C919.725 74.3532 918.919 74.5099 918.07 74.6491C917.25 74.7536 916.415 74.893 915.566 75.0672C914.717 75.2064 913.954 75.4502 913.281 75.7985C912.608 76.1468 912.051 76.6517 911.612 77.3134C911.201 77.9403 910.997 78.8109 910.997 79.9253C910.997 80.6567 911.114 81.2835 911.348 81.8059C911.612 82.2934 911.934 82.694 912.314 83.0074C912.725 83.3209 913.193 83.5472 913.721 83.6866C914.248 83.8258 914.805 83.8955 915.39 83.8955C916.62 83.8955 917.674 83.7039 918.553 83.3209C919.431 82.903 920.15 82.3979 920.706 81.8059C921.262 81.1791 921.673 80.5174 921.937 79.8208C922.199 79.0895 922.331 78.4103 922.331 77.7835V73.2388ZM931.87 60.1791H935.385V64.1492H935.473C937.171 61.0845 939.617 59.5522 942.81 59.5522C944.215 59.5522 945.49 59.9004 946.632 60.597C947.774 61.2934 948.579 62.4775 949.048 64.1492C949.81 62.6866 950.806 61.5547 952.036 60.7536C953.295 59.9527 954.672 59.5522 956.166 59.5522C957.308 59.5522 958.333 59.7089 959.241 60.0223C960.179 60.301 960.969 60.7536 961.614 61.3806C962.287 62.0074 962.8 62.8258 963.151 63.8358C963.532 64.8109 963.723 65.995 963.723 67.388V87.1865H959.988V69.4775C959.988 68.6417 959.93 67.8581 959.812 67.1268C959.695 66.3955 959.475 65.7686 959.153 65.2462C958.831 64.689 958.377 64.2537 957.791 63.9403C957.235 63.6268 956.503 63.4701 955.595 63.4701C953.75 63.4701 952.299 64.0969 951.246 65.3507C950.191 66.6044 949.663 68.2761 949.663 70.3656V87.1865H945.929V69.4775C945.929 68.607 945.855 67.8059 945.71 67.0746C945.592 66.3433 945.373 65.7163 945.05 65.1939C944.729 64.6367 944.289 64.2188 943.733 63.9403C943.205 63.6268 942.517 63.4701 941.667 63.4701C940.583 63.4701 939.646 63.7313 938.855 64.2537C938.094 64.776 937.465 65.4029 936.966 66.1342C936.498 66.8657 936.146 67.6318 935.912 68.4328C935.707 69.1989 935.605 69.8432 935.605 70.3656V87.1865H931.87V60.1791ZM969.545 49.888H973.28V87.1865H969.545V49.888ZM994.838 71.0969C994.779 70.0522 994.574 69.0596 994.223 68.1193C993.9 67.1791 993.446 66.378 992.86 65.7163C992.304 65.0199 991.63 64.4801 990.839 64.0969C990.078 63.679 989.228 63.4701 988.291 63.4701C987.324 63.4701 986.446 63.679 985.655 64.0969C984.894 64.4801 984.235 65.0199 983.678 65.7163C983.122 66.4129 982.682 67.2312 982.36 68.1716C982.038 69.077 981.847 70.0522 981.789 71.0969H994.838ZM998.44 78.6194C997.942 81.6491 996.844 83.9303 995.146 85.4626C993.446 86.995 991.308 87.7612 988.731 87.7612C986.915 87.7612 985.333 87.4129 983.986 86.7163C982.667 86.0199 981.555 85.0447 980.647 83.7911C979.739 82.5372 979.05 81.0397 978.582 79.2984C978.142 77.5571 977.894 75.6591 977.835 73.6044C977.835 71.5497 978.098 69.6691 978.626 67.9627C979.153 66.2561 979.885 64.776 980.822 63.5224C981.789 62.2685 982.917 61.2934 984.206 60.597C985.523 59.9004 986.959 59.5522 988.511 59.5522C990.532 59.5522 992.202 60.0572 993.519 61.0672C994.867 62.0422 995.936 63.296 996.727 64.8284C997.547 66.3606 998.103 68.0323 998.396 69.8432C998.719 71.6541 998.85 73.378 998.792 75.0149H981.789C981.759 76.1989 981.877 77.3309 982.141 78.4103C982.404 79.4552 982.829 80.3955 983.415 81.2312C984 82.0323 984.747 82.6766 985.655 83.1641C986.563 83.6517 987.632 83.8955 988.863 83.8955C990.444 83.8955 991.732 83.4602 992.728 82.5895C993.754 81.7189 994.427 80.3955 994.75 78.6194H998.44ZM1004.94 78.6716C1004.98 79.6467 1005.17 80.4825 1005.52 81.1791C1005.87 81.8408 1006.32 82.3806 1006.88 82.7985C1007.47 83.1815 1008.11 83.4602 1008.81 83.6343C1009.55 83.8084 1010.29 83.8955 1011.06 83.8955C1011.64 83.8955 1012.25 83.8432 1012.9 83.7387C1013.54 83.6343 1014.13 83.4428 1014.66 83.1641C1015.21 82.8855 1015.67 82.4851 1016.02 81.9627C1016.37 81.4055 1016.55 80.7089 1016.55 79.8731C1016.55 78.7239 1016.18 77.8532 1015.45 77.2611C1014.71 76.6691 1013.79 76.1989 1012.68 75.8507C1011.6 75.4676 1010.4 75.1368 1009.12 74.8581C1007.83 74.5447 1006.64 74.1268 1005.52 73.6044C1004.44 73.0472 1003.52 72.281 1002.79 71.3058C1002.06 70.3309 1001.7 68.9726 1001.7 67.2312C1001.7 65.8731 1001.94 64.7064 1002.44 63.7313C1002.97 62.7562 1003.63 61.9726 1004.41 61.3806C1005.24 60.7536 1006.15 60.301 1007.14 60.0223C1008.17 59.7089 1009.17 59.5522 1010.18 59.5522C1011.46 59.5522 1012.65 59.6914 1013.73 59.9701C1014.81 60.2138 1015.77 60.6666 1016.59 61.3283C1017.44 61.9551 1018.11 62.8258 1018.62 63.9403C1019.11 65.0199 1019.4 66.378 1019.48 68.0149H1015.75C1015.69 67.1442 1015.5 66.4303 1015.19 65.8731C1014.86 65.281 1014.45 64.8109 1013.96 64.4626C1013.46 64.1143 1012.9 63.8707 1012.29 63.7313C1011.7 63.5571 1011.1 63.4701 1010.48 63.4701C1009.93 63.4701 1009.36 63.5224 1008.77 63.6268C1008.22 63.7313 1007.7 63.9228 1007.23 64.2014C1006.76 64.4452 1006.38 64.7935 1006.08 65.2462C1005.8 65.6641 1005.66 66.2214 1005.66 66.9178C1005.66 67.684 1005.87 68.3283 1006.31 68.8507C1006.77 69.3383 1007.36 69.7562 1008.07 70.1045C1008.77 70.4179 1009.56 70.6964 1010.44 70.9403C1011.32 71.1492 1012.2 71.3756 1013.08 71.6194C1014.01 71.8631 1014.92 72.1592 1015.8 72.5074C1016.71 72.8557 1017.5 73.3259 1018.18 73.9178C1018.87 74.4751 1019.43 75.1889 1019.84 76.0596C1020.28 76.9303 1020.5 78.0099 1020.5 79.2984C1020.5 80.9353 1020.21 82.2934 1019.62 83.373C1019.07 84.4526 1018.32 85.3233 1017.39 85.985C1016.47 86.6467 1015.43 87.0995 1014.26 87.3433C1013.12 87.6218 1011.97 87.7612 1010.83 87.7612C1009.57 87.7612 1008.37 87.6044 1007.23 87.291C1006.08 86.9776 1005.08 86.4726 1004.2 85.7761C1003.32 85.0447 1002.62 84.1045 1002.09 82.9551C1001.56 81.7711 1001.27 80.3433 1001.21 78.6716H1004.94ZM1026.92 78.6716C1026.94 79.6467 1027.13 80.4825 1027.48 81.1791C1027.84 81.8408 1028.29 82.3806 1028.85 82.7985C1029.43 83.1815 1030.08 83.4602 1030.79 83.6343C1031.51 83.8084 1032.26 83.8955 1033.02 83.8955C1033.61 83.8955 1034.23 83.8432 1034.87 83.7387C1035.51 83.6343 1036.1 83.4428 1036.63 83.1641C1037.18 82.8855 1037.63 82.4851 1037.98 81.9627C1038.34 81.4055 1038.51 80.7089 1038.51 79.8731C1038.51 78.7239 1038.15 77.8532 1037.42 77.2611C1036.68 76.6691 1035.76 76.1989 1034.64 75.8507C1033.56 75.4676 1032.38 75.1368 1031.09 74.8581C1029.8 74.5447 1028.6 74.1268 1027.48 73.6044C1026.4 73.0472 1025.5 72.281 1024.76 71.3058C1024.03 70.3309 1023.67 68.9726 1023.67 67.2312C1023.67 65.8731 1023.92 64.7064 1024.41 63.7313C1024.93 62.7562 1025.6 61.9726 1026.39 61.3806C1027.21 60.7536 1028.11 60.301 1029.12 60.0223C1030.13 59.7089 1031.15 59.5522 1032.14 59.5522C1033.44 59.5522 1034.62 59.6914 1035.7 59.9701C1036.79 60.2138 1037.73 60.6666 1038.56 61.3283C1039.4 61.9551 1040.08 62.8258 1040.58 63.9403C1041.07 65.0199 1041.37 66.378 1041.46 68.0149H1037.72C1037.67 67.1442 1037.47 66.4303 1037.15 65.8731C1036.83 65.281 1036.41 64.8109 1035.92 64.4626C1035.42 64.1143 1034.87 63.8707 1034.25 63.7313C1033.66 63.5571 1033.06 63.4701 1032.45 63.4701C1031.89 63.4701 1031.33 63.5224 1030.74 63.6268C1030.18 63.7313 1029.67 63.9228 1029.2 64.2014C1028.73 64.4452 1028.35 64.7935 1028.06 65.2462C1027.76 65.6641 1027.62 66.2214 1027.62 66.9178C1027.62 67.684 1027.84 68.3283 1028.28 68.8507C1028.74 69.3383 1029.33 69.7562 1030.03 70.1045C1030.74 70.4179 1031.53 70.6964 1032.41 70.9403C1033.29 71.1492 1034.16 71.3756 1035.04 71.6194C1035.97 71.8631 1036.89 72.1592 1037.77 72.5074C1038.67 72.8557 1039.46 73.3259 1040.14 73.9178C1040.85 74.4751 1041.4 75.1889 1041.81 76.0596C1042.25 76.9303 1042.47 78.0099 1042.47 79.2984C1042.47 80.9353 1042.18 82.2934 1041.59 83.373C1041.03 84.4526 1040.28 85.3233 1039.35 85.985C1038.44 86.6467 1037.4 87.0995 1036.23 87.3433C1035.08 87.6218 1033.94 87.7612 1032.8 87.7612C1031.54 87.7612 1030.35 87.6044 1029.2 87.291C1028.06 86.9776 1027.04 86.4726 1026.17 85.7761C1025.29 85.0447 1024.58 84.1045 1024.06 82.9551C1023.53 81.7711 1023.24 80.3433 1023.18 78.6716H1026.92ZM1047.43 81.388H1052.31V86.6641C1052.31 88.6491 1051.92 90.3557 1051.17 91.7835C1050.4 93.2114 1049.17 94.2214 1047.48 94.8133V92.2014C1047.98 91.9924 1048.38 91.679 1048.71 91.2611C1049.06 90.8781 1049.34 90.4428 1049.54 89.9551C1049.75 89.5024 1049.88 89.0323 1049.94 88.5447C1050.03 88.0572 1050.05 87.6044 1050.03 87.1865H1047.43V81.388ZM1093.72 61.1193C1093.25 58.4726 1092.21 56.4875 1090.6 55.1641C1089.02 53.8408 1087.14 53.1791 1084.94 53.1791C1083.06 53.1791 1081.45 53.597 1080.1 54.4328C1078.79 55.2685 1077.68 56.4005 1076.8 57.8284C1075.96 59.2214 1075.33 60.8234 1074.92 62.6343C1074.5 64.4452 1074.3 66.3259 1074.3 68.2761C1074.3 70.4005 1074.5 72.4203 1074.92 74.3357C1075.33 76.2164 1075.96 77.8707 1076.8 79.2984C1077.68 80.6914 1078.8 81.8059 1080.14 82.6417C1081.5 83.4775 1083.11 83.8955 1084.98 83.8955C1086.36 83.8955 1087.58 83.6343 1088.63 83.1119C1089.71 82.5547 1090.63 81.8059 1091.39 80.8657C1092.19 79.8905 1092.8 78.7412 1093.24 77.4179C1093.68 76.0945 1093.94 74.6666 1094.03 73.1342H1098.2C1097.8 77.8358 1096.43 81.4925 1094.12 84.1045C1091.81 86.7163 1088.64 88.0223 1084.63 88.0223C1082.2 88.0223 1080.08 87.5348 1078.26 86.5597C1076.44 85.5497 1074.93 84.1741 1073.74 82.4328C1072.53 80.6914 1071.63 78.6367 1071.01 76.2685C1070.42 73.9004 1070.13 71.3582 1070.13 68.6417C1070.13 65.9253 1070.45 63.383 1071.1 61.0149C1071.74 58.6118 1072.68 56.5224 1073.91 54.7462C1075.17 52.9701 1076.71 51.5771 1078.56 50.5671C1080.44 49.5224 1082.58 49 1084.98 49C1086.62 49 1088.17 49.2611 1089.64 49.7835C1091.1 50.3059 1092.4 51.072 1093.54 52.082C1094.69 53.092 1095.64 54.3632 1096.41 55.8955C1097.16 57.393 1097.66 59.1342 1097.9 61.1193H1093.72ZM1105.49 73.7089C1105.49 75.3457 1105.66 76.8083 1106.01 78.0969C1106.39 79.3507 1106.9 80.4129 1107.55 81.2836C1108.19 82.1193 1108.94 82.7636 1109.79 83.2164C1110.66 83.6691 1111.59 83.8955 1112.56 83.8955C1113.52 83.8955 1114.43 83.6691 1115.28 83.2164C1116.16 82.7636 1116.92 82.1193 1117.57 81.2836C1118.21 80.4129 1118.71 79.3507 1119.06 78.0969C1119.44 76.8083 1119.63 75.3457 1119.63 73.7089C1119.63 72.072 1119.44 70.6268 1119.06 69.373C1118.71 68.0845 1118.21 67.0049 1117.57 66.1342C1116.92 65.2637 1116.16 64.602 1115.28 64.1492C1114.43 63.6964 1113.52 63.4701 1112.56 63.4701C1111.59 63.4701 1110.66 63.6964 1109.79 64.1492C1108.94 64.602 1108.19 65.2637 1107.55 66.1342C1106.9 67.0049 1106.39 68.0845 1106.01 69.373C1105.66 70.6268 1105.49 72.072 1105.49 73.7089ZM1101.53 73.7089C1101.53 71.7239 1101.77 69.8781 1102.23 68.1716C1102.7 66.4303 1103.4 64.9328 1104.34 63.679C1105.27 62.3905 1106.44 61.3806 1107.81 60.6491C1109.19 59.9178 1110.77 59.5522 1112.56 59.5522C1114.38 59.5522 1115.95 59.9178 1117.3 60.6491C1118.67 61.3806 1119.83 62.3905 1120.77 63.679C1121.71 64.9328 1122.41 66.4303 1122.88 68.1716C1123.35 69.8781 1123.58 71.7239 1123.58 73.7089C1123.58 75.694 1123.35 77.5398 1122.88 79.2462C1122.41 80.9527 1121.71 82.4502 1120.77 83.7387C1119.83 84.9924 1118.67 85.985 1117.3 86.7163C1115.95 87.4129 1114.38 87.7612 1112.56 87.7612C1110.77 87.7612 1109.19 87.4129 1107.81 86.7163C1106.44 85.985 1105.27 84.9924 1104.34 83.7387C1103.4 82.4502 1102.7 80.9527 1102.23 79.2462C1101.77 77.5398 1101.53 75.694 1101.53 73.7089ZM1127.99 60.1791H1131.5V64.1492H1131.59C1133.29 61.0845 1135.74 59.5522 1138.93 59.5522C1140.33 59.5522 1141.6 59.9004 1142.74 60.597C1143.89 61.2934 1144.69 62.4775 1145.17 64.1492C1145.92 62.6866 1146.93 61.5547 1148.16 60.7536C1149.41 59.9527 1150.79 59.5522 1152.29 59.5522C1153.42 59.5522 1154.45 59.7089 1155.35 60.0223C1156.29 60.301 1157.09 60.7536 1157.73 61.3806C1158.4 62.0074 1158.92 62.8258 1159.27 63.8358C1159.65 64.8109 1159.84 65.995 1159.84 67.388V87.1865H1156.11V69.4775C1156.11 68.6417 1156.04 67.8581 1155.93 67.1268C1155.82 66.3955 1155.59 65.7686 1155.27 65.2462C1154.95 64.689 1154.5 64.2537 1153.91 63.9403C1153.36 63.6268 1152.62 63.4701 1151.71 63.4701C1149.87 63.4701 1148.42 64.0969 1147.36 65.3507C1146.31 66.6044 1145.78 68.2761 1145.78 70.3656V87.1865H1142.04V69.4775C1142.04 68.607 1141.98 67.8059 1141.83 67.0746C1141.71 66.3433 1141.49 65.7163 1141.16 65.1939C1140.85 64.6367 1140.41 64.2188 1139.84 63.9403C1139.33 63.6268 1138.64 63.4701 1137.78 63.4701C1136.7 63.4701 1135.76 63.7313 1134.97 64.2537C1134.22 64.776 1133.58 65.4029 1133.09 66.1342C1132.61 66.8657 1132.26 67.6318 1132.03 68.4328C1131.82 69.1989 1131.72 69.8432 1131.72 70.3656V87.1865H1127.99V60.1791ZM1165.57 60.1791H1169.31V63.8358H1169.4C1170.02 62.3383 1170.98 61.2587 1172.29 60.597C1173.61 59.9004 1175.07 59.5522 1176.65 59.5522C1178.41 59.5522 1179.93 59.9353 1181.22 60.7014C1182.54 61.4676 1183.62 62.5124 1184.47 63.8358C1185.34 65.1243 1186 66.6218 1186.44 68.3283C1186.88 70.0347 1187.1 71.8457 1187.1 73.7612C1187.1 75.6766 1186.88 77.4875 1186.44 79.1939C1186.03 80.9004 1185.39 82.3979 1184.51 83.6866C1183.66 84.9403 1182.58 85.9328 1181.26 86.6641C1179.96 87.3955 1178.46 87.7612 1176.74 87.7612C1176.17 87.7612 1175.54 87.6914 1174.84 87.5522C1174.17 87.4129 1173.5 87.1865 1172.82 86.8731C1172.15 86.5597 1171.51 86.1418 1170.88 85.6194C1170.31 85.0622 1169.8 84.383 1169.4 83.582H1169.31V97.4775H1165.57V60.1791ZM1183.15 73.4478C1183.15 72.1939 1183 70.9751 1182.71 69.7911C1182.45 68.5721 1182.02 67.4925 1181.43 66.5522C1180.88 65.6118 1180.15 64.8631 1179.24 64.3059C1178.36 63.7487 1177.31 63.4701 1176.12 63.4701C1174.86 63.4701 1173.79 63.766 1172.92 64.3582C1172.04 64.9501 1171.31 65.7337 1170.76 66.7089C1170.2 67.6491 1169.79 68.7287 1169.53 69.9477C1169.29 71.1666 1169.18 72.4029 1169.18 73.6567C1169.18 74.98 1169.31 76.2685 1169.58 77.5224C1169.84 78.7412 1170.24 79.8208 1170.81 80.7612C1171.39 81.7014 1172.14 82.4676 1173.04 83.0596C1173.95 83.6168 1175.05 83.8955 1176.33 83.8955C1177.63 83.8955 1178.7 83.5994 1179.55 83.0074C1180.43 82.4153 1181.13 81.6318 1181.66 80.6567C1182.19 79.6816 1182.56 78.5671 1182.8 77.3134C1183.03 76.0596 1183.15 74.771 1183.15 73.4478ZM1191.71 49.888H1195.44V87.1865H1191.71V49.888ZM1205.17 55.3209H1201.44V49.888H1205.17V55.3209ZM1201.44 60.1791H1205.17V87.1865H1201.44V60.1791ZM1231.08 87.082C1230.44 87.5348 1229.55 87.7612 1228.41 87.7612C1227.44 87.7612 1226.66 87.4478 1226.07 86.8208C1225.52 86.1592 1225.24 85.0969 1225.24 83.6343C1224.21 85.0969 1223.02 86.1592 1221.64 86.8208C1220.29 87.4478 1218.83 87.7612 1217.24 87.7612C1216.22 87.7612 1215.25 87.6218 1214.3 87.3433C1213.4 87.0646 1212.61 86.6293 1211.93 86.0373C1211.25 85.4452 1210.71 84.679 1210.31 83.7387C1209.92 82.7636 1209.73 81.597 1209.73 80.2388C1209.73 78.7064 1209.96 77.4526 1210.4 76.4775C1210.84 75.5024 1211.4 74.7189 1212.11 74.1268C1212.84 73.4999 1213.66 73.0297 1214.57 72.7163C1215.51 72.4029 1216.45 72.1418 1217.42 71.9328C1218.45 71.689 1219.42 71.5149 1220.32 71.4103C1221.26 71.2711 1222.08 71.0969 1222.78 70.888C1223.48 70.6443 1224.04 70.3134 1224.45 69.8955C1224.87 69.4428 1225.07 68.7985 1225.07 67.9627C1225.07 66.9876 1224.9 66.2039 1224.59 65.6118C1224.29 65.0199 1223.9 64.5671 1223.4 64.2537C1222.93 63.9403 1222.39 63.7313 1221.78 63.6268C1221.19 63.5224 1220.6 63.4701 1220.02 63.4701C1218.44 63.4701 1217.12 63.8358 1216.06 64.5671C1215.01 65.2637 1214.43 66.6044 1214.34 68.5895H1210.61C1210.67 66.9178 1210.96 65.5074 1211.49 64.3582C1212.02 63.2089 1212.72 62.286 1213.6 61.5895C1214.48 60.8581 1215.47 60.3357 1216.59 60.0223C1217.73 59.7089 1218.95 59.5522 1220.23 59.5522C1221.26 59.5522 1222.27 59.6393 1223.27 59.8134C1224.29 59.9876 1225.22 60.3532 1226.03 60.9104C1226.85 61.4328 1227.52 62.1815 1228.01 63.1566C1228.51 64.1318 1228.76 65.4029 1228.76 66.9701V80.8657C1228.76 81.9104 1228.8 82.6766 1228.89 83.1641C1229.01 83.6517 1229.36 83.8955 1229.94 83.8955C1230.27 83.8955 1230.64 83.8084 1231.08 83.6343V87.082ZM1225.03 73.2388C1224.55 73.6567 1223.94 73.9701 1223.18 74.1791C1222.42 74.3532 1221.61 74.5099 1220.76 74.6491C1219.94 74.7536 1219.1 74.893 1218.26 75.0672C1217.41 75.2064 1216.64 75.4502 1215.97 75.7985C1215.3 76.1468 1214.74 76.6517 1214.3 77.3134C1213.89 77.9403 1213.69 78.8109 1213.69 79.9253C1213.69 80.6567 1213.8 81.2835 1214.04 81.8059C1214.3 82.2934 1214.63 82.694 1215.01 83.0074C1215.42 83.3209 1215.89 83.5472 1216.41 83.6866C1216.94 83.8258 1217.49 83.8955 1218.08 83.8955C1219.31 83.8955 1220.37 83.7039 1221.25 83.3209C1222.13 82.903 1222.84 82.3979 1223.4 81.8059C1223.95 81.1791 1224.36 80.5174 1224.63 79.8208C1224.89 79.0895 1225.03 78.4103 1225.03 77.7835V73.2388ZM1234.56 60.1791H1238.08V64.4626H1238.17C1239.72 61.1889 1242.18 59.5522 1245.54 59.5522C1247.04 59.5522 1248.28 59.7959 1249.28 60.2835C1250.28 60.771 1251.08 61.4502 1251.7 62.3209C1252.31 63.1915 1252.74 64.2362 1252.98 65.4552C1253.23 66.6393 1253.37 67.9627 1253.37 69.4253V87.1865H1249.64V68.903C1249.64 67.2312 1249.22 65.908 1248.4 64.9328C1247.58 63.9577 1246.46 63.4701 1245.02 63.4701C1243.87 63.4701 1242.88 63.679 1242.03 64.0969C1241.21 64.5149 1240.52 65.1069 1239.97 65.8731C1239.41 66.6393 1238.99 67.5447 1238.7 68.5895C1238.42 69.5994 1238.3 70.7139 1238.3 71.9328V87.1865H1234.56V60.1791ZM1264.16 60.1791H1268.69V64.0969H1264.16V80.8657C1264.16 81.388 1264.19 81.8059 1264.24 82.1193C1264.33 82.4328 1264.48 82.6766 1264.68 82.8507C1264.89 83.0249 1265.17 83.1468 1265.52 83.2164C1265.9 83.2513 1266.39 83.2685 1266.97 83.2685H1268.69V87.1865H1265.83C1264.86 87.1865 1264.03 87.1169 1263.33 86.9776C1262.65 86.8035 1262.09 86.5074 1261.65 86.0895C1261.24 85.6716 1260.94 85.0796 1260.74 84.3134C1260.53 83.5472 1260.42 82.5372 1260.42 81.2836V64.0969H1256.56V60.1791H1260.42V52.082H1264.16V60.1791ZM1305.19 87.082C1304.53 87.5348 1303.64 87.7612 1302.5 87.7612C1301.53 87.7612 1300.77 87.4478 1300.18 86.8208C1299.61 86.1592 1299.34 85.0969 1299.34 83.6343C1298.32 85.0969 1297.11 86.1592 1295.73 86.8208C1294.39 87.4478 1292.93 87.7612 1291.35 87.7612C1290.32 87.7612 1289.34 87.6218 1288.4 87.3433C1287.49 87.0646 1286.7 86.6293 1286.02 86.0373C1285.36 85.4452 1284.82 84.679 1284.4 83.7387C1284.02 82.7636 1283.83 81.597 1283.83 80.2388C1283.83 78.7064 1284.05 77.4526 1284.49 76.4775C1284.93 75.5024 1285.5 74.7189 1286.2 74.1268C1286.94 73.4999 1287.76 73.0297 1288.66 72.7163C1289.6 72.4029 1290.56 72.1418 1291.52 71.9328C1292.54 71.689 1293.51 71.5149 1294.41 71.4103C1295.35 71.2711 1296.17 71.0969 1296.87 70.888C1297.58 70.6443 1298.14 70.3134 1298.54 69.8955C1298.96 69.4428 1299.16 68.7985 1299.16 67.9627C1299.16 66.9876 1299.01 66.2039 1298.68 65.6118C1298.39 65.0199 1297.99 64.5671 1297.49 64.2537C1297.02 63.9403 1296.48 63.7313 1295.87 63.6268C1295.28 63.5224 1294.7 63.4701 1294.11 63.4701C1292.53 63.4701 1291.21 63.8358 1290.15 64.5671C1289.1 65.2637 1288.53 66.6044 1288.45 68.5895H1284.7C1284.77 66.9178 1285.06 65.5074 1285.58 64.3582C1286.11 63.2089 1286.81 62.286 1287.69 61.5895C1288.57 60.8581 1289.58 60.3357 1290.68 60.0223C1291.82 59.7089 1293.04 59.5522 1294.34 59.5522C1295.35 59.5522 1296.37 59.6393 1297.36 59.8134C1298.39 59.9876 1299.31 60.3532 1300.13 60.9104C1300.95 61.4328 1301.61 62.1815 1302.11 63.1566C1302.6 64.1318 1302.85 65.4029 1302.85 66.9701V80.8657C1302.85 81.9104 1302.9 82.6766 1302.99 83.1641C1303.1 83.6517 1303.45 83.8955 1304.04 83.8955C1304.36 83.8955 1304.75 83.8084 1305.19 83.6343V87.082ZM1299.12 73.2388C1298.66 73.6567 1298.04 73.9701 1297.27 74.1791C1296.51 74.3532 1295.71 74.5099 1294.85 74.6491C1294.04 74.7536 1293.21 74.893 1292.35 75.0672C1291.5 75.2064 1290.74 75.4502 1290.07 75.7985C1289.4 76.1468 1288.84 76.6517 1288.4 77.3134C1287.99 77.9403 1287.78 78.8109 1287.78 79.9253C1287.78 80.6567 1287.91 81.2835 1288.13 81.8059C1288.4 82.2934 1288.72 82.694 1289.1 83.0074C1289.51 83.3209 1289.98 83.5472 1290.51 83.6866C1291.03 83.8258 1291.6 83.8955 1292.18 83.8955C1293.41 83.8955 1294.46 83.7039 1295.34 83.3209C1296.22 82.903 1296.94 82.3979 1297.49 81.8059C1298.05 81.1791 1298.46 80.5174 1298.72 79.8208C1298.98 79.0895 1299.12 78.4103 1299.12 77.7835V73.2388ZM1308.66 60.1791H1312.17V64.4626H1312.26C1313.82 61.1889 1316.27 59.5522 1319.65 59.5522C1321.14 59.5522 1322.38 59.7959 1323.38 60.2835C1324.37 60.771 1325.17 61.4502 1325.79 62.3209C1326.4 63.1915 1326.83 64.2362 1327.07 65.4552C1327.33 66.6393 1327.46 67.9627 1327.46 69.4253V87.1865H1323.73V68.903C1323.73 67.2312 1323.31 65.908 1322.5 64.9328C1321.68 63.9577 1320.55 63.4701 1319.12 63.4701C1317.98 63.4701 1316.97 63.679 1316.13 64.0969C1315.3 64.5149 1314.62 65.1069 1314.06 65.8731C1313.51 66.6393 1313.08 67.5447 1312.79 68.5895C1312.53 69.5994 1312.39 70.7139 1312.39 71.9328V87.1865H1308.66V60.1791ZM1335.8 73.9178C1335.8 75.1716 1335.92 76.4079 1336.19 77.6268C1336.49 78.8109 1336.9 79.8731 1337.47 80.8134C1338.05 81.7536 1338.79 82.5024 1339.66 83.0596C1340.57 83.6168 1341.62 83.8955 1342.83 83.8955C1344.09 83.8955 1345.15 83.5994 1346.03 83.0074C1346.91 82.4153 1347.63 81.6491 1348.18 80.7089C1348.74 79.7337 1349.13 78.6367 1349.37 77.4179C1349.64 76.1989 1349.76 74.9627 1349.76 73.7089C1349.76 72.3855 1349.64 71.1143 1349.37 69.8955C1349.11 68.6417 1348.68 67.5447 1348.09 66.6044C1347.54 65.6641 1346.81 64.9154 1345.9 64.3582C1344.99 63.766 1343.9 63.4701 1342.6 63.4701C1341.35 63.4701 1340.28 63.766 1339.4 64.3582C1338.52 64.9501 1337.82 65.7337 1337.29 66.7089C1336.76 67.684 1336.38 68.7985 1336.15 70.0522C1335.91 71.3059 1335.8 72.5945 1335.8 73.9178ZM1353.37 87.1865H1349.64V83.5298H1349.55C1348.93 85.0273 1347.97 86.1069 1346.65 86.7686C1345.33 87.4303 1343.87 87.7612 1342.3 87.7612C1340.54 87.7612 1339 87.378 1337.68 86.6118C1336.4 85.8457 1335.31 84.8183 1334.43 83.5298C1333.59 82.2412 1332.93 80.7437 1332.5 79.0373C1332.06 77.3309 1331.84 75.5198 1331.84 73.6044C1331.84 71.689 1332.04 69.8781 1332.46 68.1716C1332.9 66.4651 1333.54 64.985 1334.39 63.7313C1335.27 62.4428 1336.35 61.4328 1337.64 60.7014C1338.96 59.9353 1340.48 59.5522 1342.2 59.5522C1342.79 59.5522 1343.42 59.6218 1344.1 59.7612C1344.78 59.9004 1345.44 60.1442 1346.12 60.4925C1346.8 60.8059 1347.43 61.2412 1348.01 61.7985C1348.62 62.3209 1349.13 62.9826 1349.55 63.7835H1349.64V49.888H1353.37V87.1865ZM1394.01 61.1193C1393.55 58.4726 1392.5 56.4875 1390.9 55.1641C1389.31 53.8408 1387.42 53.1791 1385.22 53.1791C1383.35 53.1791 1381.74 53.597 1380.4 54.4328C1379.08 55.2685 1377.97 56.4005 1377.09 57.8284C1376.25 59.2214 1375.61 60.8234 1375.21 62.6343C1374.8 64.4452 1374.59 66.3259 1374.59 68.2761C1374.59 70.4005 1374.8 72.4203 1375.21 74.3357C1375.61 76.2164 1376.25 77.8707 1377.09 79.2984C1377.97 80.6914 1379.09 81.8059 1380.43 82.6417C1381.78 83.4775 1383.4 83.8955 1385.27 83.8955C1386.65 83.8955 1387.86 83.6343 1388.91 83.1119C1390 82.5547 1390.92 81.8059 1391.69 80.8657C1392.48 79.8905 1393.09 78.7412 1393.53 77.4179C1393.97 76.0945 1394.24 74.6666 1394.31 73.1342H1398.49C1398.08 77.8358 1396.72 81.4925 1394.41 84.1045C1392.09 86.7163 1388.93 88.0223 1384.92 88.0223C1382.48 88.0223 1380.36 87.5348 1378.55 86.5597C1376.73 85.5497 1375.22 84.1741 1374.02 82.4328C1372.82 80.6914 1371.91 78.6367 1371.29 76.2685C1370.71 73.9004 1370.41 71.3582 1370.41 68.6417C1370.41 65.9253 1370.74 63.383 1371.38 61.0149C1372.03 58.6118 1372.96 56.5224 1374.19 54.7462C1375.46 52.9701 1377.01 51.5771 1378.85 50.5671C1380.72 49.5224 1382.87 49 1385.27 49C1386.9 49 1388.46 49.2611 1389.93 49.7835C1391.39 50.3059 1392.69 51.072 1393.84 52.082C1394.98 53.092 1395.93 54.3632 1396.69 55.8955C1397.45 57.393 1397.95 59.1342 1398.18 61.1193H1394.01ZM1405.77 73.7089C1405.77 75.3457 1405.94 76.8083 1406.29 78.0969C1406.68 79.3507 1407.2 80.4129 1407.84 81.2836C1408.48 82.1193 1409.23 82.7636 1410.07 83.2164C1410.95 83.6691 1411.88 83.8955 1412.85 83.8955C1413.82 83.8955 1414.72 83.6691 1415.57 83.2164C1416.44 82.7636 1417.21 82.1193 1417.85 81.2836C1418.5 80.4129 1418.99 79.3507 1419.34 78.0969C1419.73 76.8083 1419.92 75.3457 1419.92 73.7089C1419.92 72.072 1419.73 70.6268 1419.34 69.373C1418.99 68.0845 1418.5 67.0049 1417.85 66.1342C1417.21 65.2637 1416.44 64.602 1415.57 64.1492C1414.72 63.6964 1413.82 63.4701 1412.85 63.4701C1411.88 63.4701 1410.95 63.6964 1410.07 64.1492C1409.23 64.602 1408.48 65.2637 1407.84 66.1342C1407.2 67.0049 1406.68 68.0845 1406.29 69.373C1405.94 70.6268 1405.77 72.072 1405.77 73.7089ZM1401.82 73.7089C1401.82 71.7239 1402.05 69.8781 1402.51 68.1716C1402.99 66.4303 1403.69 64.9328 1404.62 63.679C1405.57 62.3905 1406.72 61.3806 1408.1 60.6491C1409.47 59.9178 1411.05 59.5522 1412.85 59.5522C1414.66 59.5522 1416.24 59.9178 1417.6 60.6491C1418.97 61.3806 1420.12 62.3905 1421.06 63.679C1421.99 64.9328 1422.7 66.4303 1423.17 68.1716C1423.64 69.8781 1423.88 71.7239 1423.88 73.7089C1423.88 75.694 1423.64 77.5398 1423.17 79.2462C1422.7 80.9527 1421.99 82.4502 1421.06 83.7387C1420.12 84.9924 1418.97 85.985 1417.6 86.7163C1416.24 87.4129 1414.66 87.7612 1412.85 87.7612C1411.05 87.7612 1409.47 87.4129 1408.1 86.7163C1406.72 85.985 1405.57 84.9924 1404.62 83.7387C1403.69 82.4502 1402.99 80.9527 1402.51 79.2462C1402.05 77.5398 1401.82 75.694 1401.82 73.7089ZM1428.28 60.1791H1431.8V64.1492H1431.87C1433.58 61.0845 1436.03 59.5522 1439.22 59.5522C1440.62 59.5522 1441.89 59.9004 1443.04 60.597C1444.18 61.2934 1444.98 62.4775 1445.45 64.1492C1446.21 62.6866 1447.21 61.5547 1448.44 60.7536C1449.7 59.9527 1451.07 59.5522 1452.57 59.5522C1453.71 59.5522 1454.74 59.7089 1455.65 60.0223C1456.59 60.301 1457.38 60.7536 1458.02 61.3806C1458.7 62.0074 1459.2 62.8258 1459.55 63.8358C1459.94 64.8109 1460.13 65.995 1460.13 67.388V87.1865H1456.4V69.4775C1456.4 68.6417 1456.34 67.8581 1456.22 67.1268C1456.1 66.3955 1455.88 65.7686 1455.56 65.2462C1455.23 64.689 1454.78 64.2537 1454.2 63.9403C1453.64 63.6268 1452.91 63.4701 1452 63.4701C1450.16 63.4701 1448.7 64.0969 1447.65 65.3507C1446.59 66.6044 1446.06 68.2761 1446.06 70.3656V87.1865H1442.33V69.4775C1442.33 68.607 1442.26 67.8059 1442.12 67.0746C1441.99 66.3433 1441.78 65.7163 1441.45 65.1939C1441.14 64.6367 1440.7 64.2188 1440.14 63.9403C1439.61 63.6268 1438.92 63.4701 1438.08 63.4701C1436.98 63.4701 1436.05 63.7313 1435.26 64.2537C1434.5 64.776 1433.87 65.4029 1433.37 66.1342C1432.9 66.8657 1432.55 67.6318 1432.31 68.4328C1432.11 69.1989 1432.01 69.8432 1432.01 70.3656V87.1865H1428.28V60.1791ZM1465.86 60.1791H1469.59V63.8358H1469.68C1470.3 62.3383 1471.26 61.2587 1472.58 60.597C1473.9 59.9004 1475.36 59.5522 1476.94 59.5522C1478.69 59.5522 1480.22 59.9353 1481.5 60.7014C1482.82 61.4676 1483.91 62.5124 1484.75 63.8358C1485.63 65.1243 1486.3 66.6218 1486.74 68.3283C1487.18 70.0347 1487.39 71.8457 1487.39 73.7612C1487.39 75.6766 1487.18 77.4875 1486.74 79.1939C1486.32 80.9004 1485.68 82.3979 1484.8 83.6866C1483.95 84.9403 1482.87 85.9328 1481.55 86.6641C1480.26 87.3955 1478.75 87.7612 1477.03 87.7612C1476.46 87.7612 1475.84 87.6914 1475.13 87.5522C1474.47 87.4129 1473.79 87.1865 1473.11 86.8731C1472.43 86.5597 1471.79 86.1418 1471.18 85.6194C1470.6 85.0622 1470.1 84.383 1469.68 83.582H1469.59V97.4775H1465.86V60.1791ZM1483.43 73.4478C1483.43 72.1939 1483.29 70.9751 1482.99 69.7911C1482.73 68.5721 1482.3 67.4925 1481.73 66.5522C1481.16 65.6118 1480.43 64.8631 1479.53 64.3059C1478.65 63.7487 1477.61 63.4701 1476.41 63.4701C1475.15 63.4701 1474.08 63.766 1473.2 64.3582C1472.32 64.9501 1471.6 65.7337 1471.05 66.7089C1470.49 67.6491 1470.08 68.7287 1469.82 69.9477C1469.58 71.1666 1469.47 72.4029 1469.47 73.6567C1469.47 74.98 1469.59 76.2685 1469.86 77.5224C1470.12 78.7412 1470.54 79.8208 1471.09 80.7612C1471.68 81.7014 1472.42 82.4676 1473.34 83.0596C1474.24 83.6168 1475.33 83.8955 1476.63 83.8955C1477.92 83.8955 1478.99 83.5994 1479.83 83.0074C1480.71 82.4153 1481.41 81.6318 1481.94 80.6567C1482.47 79.6816 1482.85 78.5671 1483.08 77.3134C1483.32 76.0596 1483.43 74.771 1483.43 73.4478ZM1494.5 73.7089C1494.5 75.3457 1494.68 76.8083 1495.03 78.0969C1495.41 79.3507 1495.92 80.4129 1496.56 81.2836C1497.2 82.1193 1497.96 82.7636 1498.81 83.2164C1499.69 83.6691 1500.61 83.8955 1501.57 83.8955C1502.54 83.8955 1503.44 83.6691 1504.3 83.2164C1505.18 82.7636 1505.93 82.1193 1506.58 81.2836C1507.22 80.4129 1507.73 79.3507 1508.08 78.0969C1508.45 76.8083 1508.64 75.3457 1508.64 73.7089C1508.64 72.072 1508.45 70.6268 1508.08 69.373C1507.73 68.0845 1507.22 67.0049 1506.58 66.1342C1505.93 65.2637 1505.18 64.602 1504.3 64.1492C1503.44 63.6964 1502.54 63.4701 1501.57 63.4701C1500.61 63.4701 1499.69 63.6964 1498.81 64.1492C1497.96 64.602 1497.2 65.2637 1496.56 66.1342C1495.92 67.0049 1495.41 68.0845 1495.03 69.373C1494.68 70.6268 1494.5 72.072 1494.5 73.7089ZM1490.55 73.7089C1490.55 71.7239 1490.77 69.8781 1491.25 68.1716C1491.71 66.4303 1492.42 64.9328 1493.36 63.679C1494.29 62.3905 1495.46 61.3806 1496.83 60.6491C1498.21 59.9178 1499.79 59.5522 1501.57 59.5522C1503.39 59.5522 1504.96 59.9178 1506.32 60.6491C1507.69 61.3806 1508.86 62.3905 1509.79 63.679C1510.73 64.9328 1511.43 66.4303 1511.9 68.1716C1512.36 69.8781 1512.6 71.7239 1512.6 73.7089C1512.6 75.694 1512.36 77.5398 1511.9 79.2462C1511.43 80.9527 1510.73 82.4502 1509.79 83.7387C1508.86 84.9924 1507.69 85.985 1506.32 86.7163C1504.96 87.4129 1503.39 87.7612 1501.57 87.7612C1499.79 87.7612 1498.21 87.4129 1496.83 86.7163C1495.46 85.985 1494.29 84.9924 1493.36 83.7387C1492.42 82.4502 1491.71 80.9527 1491.25 79.2462C1490.77 77.5398 1490.55 75.694 1490.55 73.7089ZM1519.29 78.6716C1519.31 79.6467 1519.5 80.4825 1519.85 81.1791C1520.21 81.8408 1520.66 82.3806 1521.22 82.7985C1521.8 83.1815 1522.45 83.4602 1523.16 83.6343C1523.89 83.8084 1524.64 83.8955 1525.39 83.8955C1525.98 83.8955 1526.6 83.8432 1527.24 83.7387C1527.88 83.6343 1528.47 83.4428 1529 83.1641C1529.55 82.8855 1530 82.4851 1530.35 81.9627C1530.71 81.4055 1530.88 80.7089 1530.88 79.8731C1530.88 78.7239 1530.52 77.8532 1529.79 77.2611C1529.06 76.6691 1528.13 76.1989 1527.01 75.8507C1525.93 75.4676 1524.75 75.1368 1523.46 74.8581C1522.18 74.5447 1520.97 74.1268 1519.85 73.6044C1518.77 73.0472 1517.87 72.281 1517.13 71.3058C1516.4 70.3309 1516.04 68.9726 1516.04 67.2312C1516.04 65.8731 1516.29 64.7064 1516.78 63.7313C1517.31 62.7562 1517.97 61.9726 1518.76 61.3806C1519.58 60.7536 1520.48 60.301 1521.49 60.0223C1522.5 59.7089 1523.52 59.5522 1524.51 59.5522C1525.81 59.5522 1526.99 59.6914 1528.08 59.9701C1529.16 60.2138 1530.11 60.6666 1530.93 61.3283C1531.77 61.9551 1532.45 62.8258 1532.95 63.9403C1533.44 65.0199 1533.74 66.378 1533.83 68.0149H1530.09C1530.04 67.1442 1529.85 66.4303 1529.52 65.8731C1529.2 65.281 1528.79 64.8109 1528.29 64.4626C1527.79 64.1143 1527.24 63.8707 1526.62 63.7313C1526.03 63.5571 1525.44 63.4701 1524.83 63.4701C1524.26 63.4701 1523.7 63.5224 1523.11 63.6268C1522.55 63.7313 1522.04 63.9228 1521.57 64.2014C1521.1 64.4452 1520.72 64.7935 1520.43 65.2462C1520.13 65.6641 1519.99 66.2214 1519.99 66.9178C1519.99 67.684 1520.21 68.3283 1520.65 68.8507C1521.12 69.3383 1521.7 69.7562 1522.4 70.1045C1523.11 70.4179 1523.9 70.6964 1524.78 70.9403C1525.66 71.1492 1526.54 71.3756 1527.41 71.6194C1528.36 71.8631 1529.26 72.1592 1530.14 72.5074C1531.04 72.8557 1531.84 73.3259 1532.51 73.9178C1533.22 74.4751 1533.77 75.1889 1534.18 76.0596C1534.62 76.9303 1534.84 78.0099 1534.84 79.2984C1534.84 80.9353 1534.55 82.2934 1533.96 83.373C1533.4 84.4526 1532.65 85.3233 1531.72 85.985C1530.82 86.6467 1529.77 87.0995 1528.61 87.3433C1527.45 87.6218 1526.32 87.7612 1525.18 87.7612C1523.91 87.7612 1522.72 87.6044 1521.57 87.291C1520.43 86.9776 1519.42 86.4726 1518.54 85.7761C1517.66 85.0447 1516.95 84.1045 1516.44 82.9551C1515.9 81.7711 1515.61 80.3433 1515.56 78.6716H1519.29ZM1559.09 87.082C1558.45 87.5348 1557.56 87.7612 1556.41 87.7612C1555.45 87.7612 1554.67 87.4478 1554.09 86.8208C1553.52 86.1592 1553.25 85.0969 1553.25 83.6343C1552.22 85.0969 1551.02 86.1592 1549.64 86.8208C1548.3 87.4478 1546.83 87.7612 1545.25 87.7612C1544.23 87.7612 1543.25 87.6218 1542.31 87.3433C1541.4 87.0646 1540.61 86.6293 1539.94 86.0373C1539.26 85.4452 1538.72 84.679 1538.31 83.7387C1537.93 82.7636 1537.74 81.597 1537.74 80.2388C1537.74 78.7064 1537.96 77.4526 1538.4 76.4775C1538.84 75.5024 1539.41 74.7189 1540.11 74.1268C1540.84 73.4999 1541.67 73.0297 1542.57 72.7163C1543.51 72.4029 1544.46 72.1418 1545.42 71.9328C1546.45 71.689 1547.42 71.5149 1548.33 71.4103C1549.27 71.2711 1550.08 71.0969 1550.79 70.888C1551.49 70.6443 1552.04 70.3134 1552.46 69.8955C1552.87 69.4428 1553.07 68.7985 1553.07 67.9627C1553.07 66.9876 1552.91 66.2039 1552.59 65.6118C1552.29 65.0199 1551.9 64.5671 1551.4 64.2537C1550.94 63.9403 1550.4 63.7313 1549.78 63.6268C1549.19 63.5224 1548.6 63.4701 1548.02 63.4701C1546.44 63.4701 1545.12 63.8358 1544.07 64.5671C1543.01 65.2637 1542.44 66.6044 1542.35 68.5895H1538.62C1538.68 66.9178 1538.97 65.5074 1539.5 64.3582C1540.02 63.2089 1540.73 62.286 1541.61 61.5895C1542.48 60.8581 1543.48 60.3357 1544.59 60.0223C1545.74 59.7089 1546.95 59.5522 1548.24 59.5522C1549.27 59.5522 1550.27 59.6393 1551.28 59.8134C1552.29 59.9876 1553.22 60.3532 1554.04 60.9104C1554.86 61.4328 1555.52 62.1815 1556.01 63.1566C1556.51 64.1318 1556.76 65.4029 1556.76 66.9701V80.8657C1556.76 81.9104 1556.8 82.6766 1556.89 83.1641C1557.01 83.6517 1557.37 83.8955 1557.95 83.8955C1558.27 83.8955 1558.65 83.8084 1559.09 83.6343V87.082ZM1553.02 73.2388C1552.56 73.6567 1551.94 73.9701 1551.19 74.1791C1550.42 74.3532 1549.62 74.5099 1548.76 74.6491C1547.95 74.7536 1547.11 74.893 1546.26 75.0672C1545.41 75.2064 1544.66 75.4502 1543.98 75.7985C1543.3 76.1468 1542.75 76.6517 1542.31 77.3134C1541.9 77.9403 1541.69 78.8109 1541.69 79.9253C1541.69 80.6567 1541.81 81.2835 1542.05 81.8059C1542.31 82.2934 1542.63 82.694 1543.01 83.0074C1543.43 83.3209 1543.89 83.5472 1544.42 83.6866C1544.95 83.8258 1545.5 83.8955 1546.09 83.8955C1547.32 83.8955 1548.37 83.7039 1549.25 83.3209C1550.13 82.903 1550.85 82.3979 1551.4 81.8059C1551.96 81.1791 1552.37 80.5174 1552.63 79.8208C1552.9 79.0895 1553.02 78.4103 1553.02 77.7835V73.2388ZM1562.7 49.888H1566.44V63.8358H1566.53C1567.14 62.3383 1568.11 61.2587 1569.42 60.597C1570.73 59.9004 1572.19 59.5522 1573.77 59.5522C1575.53 59.5522 1577.05 59.9353 1578.34 60.7014C1579.66 61.4676 1580.74 62.5124 1581.6 63.8358C1582.46 65.1243 1583.13 66.6218 1583.57 68.3283C1584.01 70.0347 1584.22 71.8457 1584.22 73.7612C1584.22 75.6766 1584.01 77.4875 1583.57 79.1939C1583.16 80.9004 1582.51 82.3979 1581.63 83.6866C1580.78 84.9403 1579.7 85.9328 1578.38 86.6641C1577.09 87.3955 1575.58 87.7612 1573.86 87.7612C1573.3 87.7612 1572.67 87.6914 1571.97 87.5522C1571.3 87.4129 1570.62 87.1865 1569.94 86.8731C1569.28 86.5597 1568.64 86.1418 1568.01 85.6194C1567.43 85.0622 1566.93 84.383 1566.53 83.582H1566.44V87.1865H1562.7V49.888ZM1580.28 73.4478C1580.28 72.1939 1580.13 70.9751 1579.84 69.7911C1579.56 68.5721 1579.15 67.4925 1578.56 66.5522C1578 65.6118 1577.28 64.8631 1576.36 64.3059C1575.48 63.7487 1574.44 63.4701 1573.25 63.4701C1571.99 63.4701 1570.91 63.766 1570.03 64.3582C1569.15 64.9501 1568.44 65.7337 1567.88 66.7089C1567.33 67.6491 1566.92 68.7287 1566.65 69.9477C1566.41 71.1666 1566.3 72.4029 1566.3 73.6567C1566.3 74.98 1566.44 76.2685 1566.7 77.5224C1566.95 78.7412 1567.37 79.8208 1567.92 80.7612C1568.51 81.7014 1569.26 82.4676 1570.17 83.0596C1571.07 83.6168 1572.18 83.8955 1573.46 83.8955C1574.75 83.8955 1575.82 83.5994 1576.67 83.0074C1577.55 82.4153 1578.26 81.6318 1578.78 80.6567C1579.31 79.6816 1579.69 78.5671 1579.93 77.3134C1580.15 76.0596 1580.28 74.771 1580.28 73.4478ZM1588.83 49.888H1592.56V87.1865H1588.83V49.888ZM1614.12 71.0969C1614.07 70.0522 1613.85 69.0596 1613.5 68.1193C1613.19 67.1791 1612.73 66.378 1612.14 65.7163C1611.59 65.0199 1610.91 64.4801 1610.12 64.0969C1609.36 63.679 1608.51 63.4701 1607.57 63.4701C1606.61 63.4701 1605.73 63.679 1604.94 64.0969C1604.18 64.4801 1603.52 65.0199 1602.96 65.7163C1602.41 66.4129 1601.97 67.2312 1601.65 68.1716C1601.32 69.077 1601.13 70.0522 1601.07 71.0969H1614.12ZM1617.72 78.6194C1617.23 81.6491 1616.13 83.9303 1614.43 85.4626C1612.73 86.995 1610.59 87.7612 1608.01 87.7612C1606.2 87.7612 1604.62 87.4129 1603.27 86.7163C1601.95 86.0199 1600.84 85.0447 1599.94 83.7911C1599.02 82.5372 1598.33 81.0397 1597.87 79.2984C1597.43 77.5571 1597.18 75.6591 1597.12 73.6044C1597.12 71.5497 1597.39 69.6691 1597.9 67.9627C1598.44 66.2561 1599.17 64.776 1600.1 63.5224C1601.07 62.2685 1602.2 61.2934 1603.49 60.597C1604.81 59.9004 1606.24 59.5522 1607.8 59.5522C1609.82 59.5522 1611.49 60.0572 1612.8 61.0672C1614.15 62.0422 1615.22 63.296 1616.01 64.8284C1616.83 66.3606 1617.38 68.0323 1617.68 69.8432C1618 71.6541 1618.14 73.378 1618.07 75.0149H1601.07C1601.04 76.1989 1601.16 77.3309 1601.42 78.4103C1601.68 79.4552 1602.11 80.3955 1602.7 81.2312C1603.29 82.0323 1604.03 82.6766 1604.94 83.1641C1605.85 83.6517 1606.92 83.8955 1608.15 83.8955C1609.73 83.8955 1611.01 83.4602 1612.02 82.5895C1613.04 81.7189 1613.71 80.3955 1614.03 78.6194H1617.72ZM1638.96 67.7536H1647.14C1649.51 67.7885 1651.23 67.2138 1652.32 66.0297C1653.43 64.8457 1653.99 63.1392 1653.99 60.9104C1653.99 58.6816 1653.43 56.9924 1652.32 55.8432C1651.23 54.6591 1649.51 54.0672 1647.14 54.0672H1638.96V67.7536ZM1634.79 49.888H1648.54C1651.71 49.888 1654.09 50.8631 1655.7 52.8134C1657.35 54.7287 1658.16 57.4278 1658.16 60.9104C1658.16 64.393 1657.35 67.1093 1655.7 69.0596C1654.09 71.0099 1651.71 71.9676 1648.54 71.9328H1638.96V87.1865H1634.79V49.888ZM1662.53 60.1791H1666.04V65.8731H1666.13C1667.05 63.679 1668.15 62.0596 1669.47 61.0149C1670.79 59.9701 1672.46 59.4825 1674.48 59.5522V64.2537C1672.99 64.2537 1671.72 64.4975 1670.66 64.985C1669.61 65.4726 1668.76 66.1865 1668.11 67.1268C1667.46 68.0672 1667 69.2164 1666.71 70.5745C1666.41 71.898 1666.27 73.4303 1666.27 75.1716V87.1865H1662.53V60.1791ZM1681.25 55.3209H1677.51V49.888H1681.25V55.3209ZM1677.51 60.1791H1681.25V87.1865H1677.51V60.1791ZM1697.27 87.1865H1693.27L1684.83 60.1791H1689.01L1695.38 82.694H1695.47L1701.66 60.1791H1705.58L1697.27 87.1865ZM1729.13 87.082C1728.47 87.5348 1727.58 87.7612 1726.44 87.7612C1725.47 87.7612 1724.69 87.4478 1724.11 86.8208C1723.56 86.1592 1723.27 85.0969 1723.27 83.6343C1722.26 85.0969 1721.05 86.1592 1719.68 86.8208C1718.33 87.4478 1716.87 87.7612 1715.29 87.7612C1714.26 87.7612 1713.28 87.6218 1712.34 87.3433C1711.43 87.0646 1710.64 86.6293 1709.96 86.0373C1709.3 85.4452 1708.75 84.679 1708.34 83.7387C1707.96 82.7636 1707.76 81.597 1707.76 80.2388C1707.76 78.7064 1707.99 77.4526 1708.43 76.4775C1708.87 75.5024 1709.43 74.7189 1710.14 74.1268C1710.88 73.4999 1711.69 73.0297 1712.6 72.7163C1713.54 72.4029 1714.49 72.1418 1715.46 71.9328C1716.48 71.689 1717.45 71.5149 1718.36 71.4103C1719.29 71.2711 1720.12 71.0969 1720.81 70.888C1721.53 70.6443 1722.08 70.3134 1722.48 69.8955C1722.9 69.4428 1723.1 68.7985 1723.1 67.9627C1723.1 66.9876 1722.95 66.2039 1722.62 65.6118C1722.33 65.0199 1721.93 64.5671 1721.43 64.2537C1720.96 63.9403 1720.42 63.7313 1719.81 63.6268C1719.22 63.5224 1718.64 63.4701 1718.05 63.4701C1716.47 63.4701 1715.15 63.8358 1714.09 64.5671C1713.04 65.2637 1712.47 66.6044 1712.38 68.5895H1708.64C1708.71 66.9178 1709.01 65.5074 1709.52 64.3582C1710.05 63.2089 1710.75 62.286 1711.63 61.5895C1712.51 60.8581 1713.51 60.3357 1714.62 60.0223C1715.76 59.7089 1716.98 59.5522 1718.27 59.5522C1719.29 59.5522 1720.31 59.6393 1721.3 59.8134C1722.33 59.9876 1723.25 60.3532 1724.07 60.9104C1724.89 61.4328 1725.55 62.1815 1726.05 63.1566C1726.54 64.1318 1726.79 65.4029 1726.79 66.9701V80.8657C1726.79 81.9104 1726.84 82.6766 1726.93 83.1641C1727.04 83.6517 1727.39 83.8955 1727.98 83.8955C1728.3 83.8955 1728.69 83.8084 1729.13 83.6343V87.082ZM1723.06 73.2388C1722.59 73.6567 1721.98 73.9701 1721.21 74.1791C1720.45 74.3532 1719.64 74.5099 1718.8 74.6491C1717.97 74.7536 1717.14 74.893 1716.29 75.0672C1715.45 75.2064 1714.68 75.4502 1714.01 75.7985C1713.34 76.1468 1712.78 76.6517 1712.34 77.3134C1711.93 77.9403 1711.72 78.8109 1711.72 79.9253C1711.72 80.6567 1711.84 81.2835 1712.07 81.8059C1712.34 82.2934 1712.66 82.694 1713.04 83.0074C1713.45 83.3209 1713.92 83.5472 1714.45 83.6866C1714.97 83.8258 1715.54 83.8955 1716.12 83.8955C1717.35 83.8955 1718.4 83.7039 1719.28 83.3209C1720.16 82.903 1720.88 82.3979 1721.43 81.8059C1721.99 81.1791 1722.4 80.5174 1722.66 79.8208C1722.92 79.0895 1723.06 78.4103 1723.06 77.7835V73.2388ZM1748.02 68.8507C1747.73 67.1442 1747.11 65.8208 1746.17 64.8805C1745.23 63.9403 1743.98 63.4701 1742.39 63.4701C1741.05 63.4701 1739.92 63.766 1739.01 64.3582C1738.11 64.9501 1737.37 65.7337 1736.82 66.7089C1736.29 67.684 1735.91 68.8159 1735.67 70.1045C1735.44 71.3582 1735.32 72.6641 1735.32 74.0223C1735.32 75.2761 1735.44 76.4949 1735.67 77.679C1735.94 78.8631 1736.33 79.9253 1736.85 80.8657C1737.38 81.7711 1738.07 82.5024 1738.93 83.0596C1739.77 83.6168 1740.78 83.8955 1741.95 83.8955C1743.8 83.8955 1745.23 83.3208 1746.26 82.1716C1747.32 81.0223 1747.96 79.4029 1748.19 77.3134H1752.01C1751.61 80.6567 1750.55 83.2338 1748.85 85.0447C1747.19 86.8557 1744.9 87.7612 1742 87.7612C1740.27 87.7612 1738.74 87.4303 1737.38 86.7686C1736.06 86.1069 1734.96 85.1666 1734.05 83.9477C1733.17 82.7287 1732.5 81.2835 1732.03 79.6118C1731.59 77.9054 1731.37 76.0422 1731.37 74.0223C1731.37 72.0024 1731.59 70.1218 1732.03 68.3806C1732.47 66.6044 1733.12 65.072 1734 63.7835C1734.91 62.4602 1736.04 61.4328 1737.38 60.7014C1738.74 59.9353 1740.31 59.5522 1742.09 59.5522C1743.37 59.5522 1744.58 59.7437 1745.69 60.1268C1746.84 60.4751 1747.83 61.0323 1748.67 61.7985C1749.55 62.5647 1750.28 63.5398 1750.83 64.7239C1751.38 65.8731 1751.74 67.2487 1751.89 68.8507H1748.02ZM1765.11 90.791C1764.68 92.1143 1764.24 93.2288 1763.8 94.1342C1763.38 95.0397 1762.92 95.771 1762.39 96.3283C1761.89 96.9204 1761.32 97.3383 1760.68 97.582C1760.07 97.8606 1759.34 98 1758.52 98C1758.08 98 1757.64 97.9651 1757.2 97.8955C1756.76 97.8258 1756.34 97.7039 1755.93 97.5298V93.4552C1756.25 93.6293 1756.61 93.7686 1757.03 93.8731C1757.47 94.0124 1757.83 94.082 1758.13 94.082C1758.89 94.082 1759.52 93.8557 1760.02 93.4029C1760.54 92.985 1760.93 92.3756 1761.21 91.5745L1762.74 87.0297L1753.74 60.1791H1757.96L1764.59 82.2761H1764.68L1771.04 60.1791H1775L1765.11 90.791Z" fill="white"/>
</svg>
