<svg xmlns="http://www.w3.org/2000/svg" width="200" height="400" viewBox="0 0 200 400"><defs><linearGradient id="bg" x1="0%" y1="0%" x2="100%" y2="100%"><stop offset="0%" style="stop-color:#0a1628"/><stop offset="100%" style="stop-color:#0d2040"/></linearGradient><linearGradient id="b" x1="0%" y1="0%" x2="100%" y2="0%"><stop offset="0%" style="stop-color:#4a7c59cc"/><stop offset="50%" style="stop-color:#4a7c59"/><stop offset="100%" style="stop-color:#4a7c5999"/></linearGradient></defs><rect width="200" height="400" fill="url(#bg)"/><rect x="85" y="40" width="30" height="80" rx="6" fill="url(#b)"/><rect x="80" y="35" width="40" height="20" rx="4" fill="#c9a84c"/><path d="M60 120 Q55 140 55 200 L55 320 Q55 340 100 340 Q145 340 145 320 L145 200 Q145 140 140 120 Z" fill="url(#b)"/><rect x="65" y="190" width="70" height="90" rx="4" fill="#f5f0e8"/><text x="100" y="215" font-family="Georgia,serif" font-size="9" font-weight="bold" fill="#1a1a2e" text-anchor="middle">Louis Roederer</text><line x1="70" y1="222" x2="130" y2="222" stroke="#c9a84c" stroke-width="0.5"/><text x="100" y="240" font-family="Georgia,serif" font-size="7" fill="#333" text-anchor="middle">CHAMPAGNE</text><text x="100" y="258" font-family="Georgia,serif" font-size="8" fill="#1a1a2e" text-anchor="middle">2015</text><rect x="55" y="320" width="90" height="18" rx="4" fill="#4a7c59"/></svg>